<svg width="25" height="25" viewBox="0 0 30 30" fill="none" xmlns="http://www.w3.org/2000/svg">
<path fill-rule="evenodd" clip-rule="evenodd" d="M0 5.12423C0 2.2942 2.2942 0 5.12423 0H24.8758C27.7058 0 30 2.2942 30 5.12423V24.8758C30 27.7058 27.7059 30 24.8758 30H5.12423C2.2942 30 0 27.7059 0 24.8758V5.12423ZM5.12423 2.04969C3.42621 2.04969 2.04969 3.42621 2.04969 5.12423V24.8758C2.04969 26.5738 3.42621 27.9503 5.12423 27.9503H24.8758C26.5738 27.9503 27.9503 26.5738 27.9503 24.8758V5.12423C27.9503 3.42621 26.5738 2.04969 24.8758 2.04969H5.12423ZM6.98764 15.0001C6.98764 14.434 7.44648 13.9752 8.01249 13.9752H13.9752V8.01243C13.9752 7.44643 14.434 6.98758 15.0001 6.98758C15.566 6.98758 16.0249 7.44643 16.0249 8.01243V13.9752H21.9877C22.5537 13.9752 23.0125 14.434 23.0125 15.0001C23.0125 15.566 22.5537 16.0249 21.9877 16.0249H16.0249V21.9876C16.0249 22.5536 15.566 23.0124 15.0001 23.0124C14.434 23.0124 13.9752 22.5536 13.9752 21.9876V16.0249H8.01249C7.44648 16.0249 6.98764 15.566 6.98764 15.0001Z" fill="black"/>
</svg>
