<svg width="40" height="40" viewBox="0 0 31 29" fill="none" xmlns="http://www.w3.org/2000/svg">
<path fill-rule="evenodd" clip-rule="evenodd" d="M0.537079 5.22071C0.537079 2.45928 2.77565 0.220703 5.53708 0.220703H24.8098C27.5712 0.220703 29.8098 2.45928 29.8098 5.2207V24.4934C29.8098 27.2549 27.5712 29.4934 24.8098 29.4934H5.53708C2.77566 29.4934 0.537079 27.2549 0.537079 24.4934V5.22071ZM5.53708 2.2207C3.88023 2.2207 2.53708 3.56385 2.53708 5.22071V24.4934C2.53708 26.1503 3.88023 27.4934 5.53708 27.4934H24.8098C26.4667 27.4934 27.8098 26.1503 27.8098 24.4934V5.2207C27.8098 3.56385 26.4667 2.2207 24.8098 2.2207H5.53708ZM7.35532 14.8571C7.35532 14.3048 7.80303 13.8571 8.35532 13.8571H14.1734V8.03888C14.1734 7.4866 14.6211 7.03888 15.1734 7.03888C15.7257 7.03888 16.1734 7.4866 16.1734 8.03888V13.8571H21.9917C22.544 13.8571 22.9917 14.3048 22.9917 14.8571C22.9917 15.4094 22.544 15.8571 21.9917 15.8571H16.1734V21.6752C16.1734 22.2275 15.7257 22.6752 15.1734 22.6752C14.6211 22.6752 14.1734 22.2275 14.1734 21.6752V15.8571H8.35532C7.80303 15.8571 7.35532 15.4094 7.35532 14.8571Z" fill="black"/>
</svg>
