<svg width="25" height="25" viewBox="0 0 30 31" fill="none" xmlns="http://www.w3.org/2000/svg">
<path fill-rule="evenodd" clip-rule="evenodd" d="M24.8753 0.671814H5.1247C2.29587 0.671814 0 2.96768 0 5.79651V25.5471C0 28.3759 2.29587 30.6718 5.1247 30.6718H24.8753C27.7041 30.6718 30 28.3759 30 25.5471V5.79651C30 2.96768 27.7041 0.671814 24.8753 0.671814ZM21.9952 16.7019H16.0301V22.6568C16.0301 23.2307 15.5688 23.6817 15.0051 23.6817C14.4414 23.6817 13.9802 23.2307 13.9802 22.6568V16.7019H8.01503C7.45132 16.7019 6.99009 16.2407 6.99009 15.6769C6.99009 15.1132 7.45132 14.652 8.01503 14.652H13.9802V8.68685C13.9802 8.12313 14.4312 7.66191 15.0051 7.66191C15.5791 7.66191 16.0301 8.12313 16.0301 8.68685V14.652H21.9952C22.5589 14.652 23.0202 15.103 23.0202 15.6769C23.0202 16.2509 22.5589 16.7019 21.9952 16.7019Z" fill="black"/>
</svg>
