<svg width="25" height="25" viewBox="0 0 31 31" fill="none" xmlns="http://www.w3.org/2000/svg">
<path fill-rule="evenodd" clip-rule="evenodd" d="M14.9056 1.22178C15.4456 0.841844 16.2056 0.841844 16.7456 1.22178L30.2456 10.7702C30.6156 11.0301 30.8256 11.4301 30.8256 11.85V26.8475C30.8256 27.9373 30.3556 28.9772 29.5056 29.737C28.6656 30.5069 27.5156 30.9368 26.3256 30.9368H20.3256V17.939C20.3256 16.8392 19.4256 15.9393 18.3256 15.9393H13.3256C12.2256 15.9393 11.3256 16.8392 11.3256 17.939V30.9368H5.32564C4.13564 30.9368 2.98564 30.5069 2.14564 29.737C1.30564 28.9672 0.825638 27.9273 0.825638 26.8475V11.85C0.825638 11.4301 1.03564 11.0301 1.40564 10.7702L14.9056 1.22178Z" fill="black"/>
</svg>
