<svg width="31" height="31" viewBox="0 0 31 31" fill="none" xmlns="http://www.w3.org/2000/svg">
<path fill-rule="evenodd" clip-rule="evenodd" d="M14.3924 0.50795C14.9341 0.124954 15.6926 0.124954 16.2343 0.50795L29.7343 10.0534C30.0996 10.3118 30.3134 10.709 30.3134 11.1298V26.1298C30.3134 27.2148 29.8392 28.2553 28.9953 29.0225C28.1514 29.7897 27.0068 30.2207 25.8134 30.2207H19.8134V17.2207C19.8134 16.1161 18.9179 15.2207 17.8134 15.2207H12.8134C11.7088 15.2207 10.8134 16.1161 10.8134 17.2207V30.2207H4.81335C3.61988 30.2207 2.47529 29.7897 1.63137 29.0225C0.78746 28.2553 0.313354 27.2148 0.313354 26.1298V11.1298C0.313354 10.709 0.527064 10.3118 0.892444 10.0534L14.3924 0.50795Z" fill="black"/>
</svg>
