<svg width="25" height="25" viewBox="0 0 36 31" fill="none" xmlns="http://www.w3.org/2000/svg">
<path fill-rule="evenodd" clip-rule="evenodd" d="M8.47316 28.1718V3.17181C8.47316 1.79181 7.53316 0.671814 6.36316 0.671814H2.15316C0.983159 0.671814 0.0431595 1.79181 0.0431595 3.17181V28.1718C0.0431595 29.5518 0.983159 30.6718 2.15316 30.6718H6.36316C7.53316 30.6718 8.47316 29.5518 8.47316 28.1718ZM19.7132 3.17181V28.1718C19.7132 29.5518 18.7632 30.6718 17.6032 30.6718H13.3932C12.2232 30.6718 11.2832 29.5518 11.2832 28.1718V3.17181C11.2832 1.79181 12.2232 0.671814 13.3932 0.671814H17.6032C18.7632 0.671814 19.7132 1.79181 19.7132 3.17181ZM34.2832 29.0118L30.3332 30.4718C29.2332 30.8818 28.0232 30.3118 27.6132 29.2018L20.1932 9.16179C19.7832 8.05178 20.3332 6.83179 21.4332 6.42179L25.3832 4.96179C26.4832 4.55179 27.6932 5.12179 28.1032 6.23179L35.5232 26.2718C35.9332 27.3818 35.3832 28.6018 34.2832 29.0118Z" fill="black"/>
</svg>
