<svg width="32" height="32" viewBox="0 0 48 30" fill="none" xmlns="http://www.w3.org/2000/svg">
<path fill-rule="evenodd" clip-rule="evenodd" d="M3.85033 3.14797C3.53967 3.14797 3.28783 3.39981 3.28783 3.71047V26.0036C3.28783 26.3143 3.53967 26.5661 3.85033 26.5661H5.92088C6.23154 26.5661 6.48338 26.3143 6.48338 26.0036V3.71047C6.48338 3.39981 6.23154 3.14797 5.92088 3.14797H3.85033ZM2.88839 0.220703C1.78536 0.220703 0.891174 1.31286 0.891174 2.66009V27.054C0.891174 28.4013 1.78536 29.4934 2.88839 29.4934H6.88282C7.98585 29.4934 8.88004 28.4013 8.88004 27.054V2.6601C8.88004 1.31286 7.98585 0.220703 6.88282 0.220703H2.88839ZM14.5021 3.14797C14.1915 3.14797 13.9396 3.39981 13.9396 3.71047V26.0036C13.9396 26.3143 14.1915 26.5661 14.5021 26.5661H16.5727C16.8834 26.5661 17.1352 26.3143 17.1352 26.0036V3.71047C17.1352 3.39981 16.8834 3.14797 16.5727 3.14797H14.5021ZM13.5402 0.220703C12.4372 0.220703 11.543 1.31286 11.543 2.66009V27.054C11.543 28.4013 12.4372 29.4934 13.5402 29.4934H17.5346C18.6377 29.4934 19.5319 28.4013 19.5319 27.054V2.6601C19.5319 1.31286 18.6377 0.220703 17.5346 0.220703H13.5402ZM23.0103 8.02663C22.9316 7.72609 23.1055 7.39916 23.3987 7.29641L24.8856 6.77529C25.1788 6.67254 25.4802 6.83287 25.5589 7.13341L30.1292 24.5935C30.2079 24.894 30.034 25.221 29.7408 25.3237L28.2539 25.8448C27.9607 25.9476 27.6593 25.7873 27.5806 25.4867L23.0103 8.02663ZM20.1155 7.59734C19.7779 6.30775 20.36 4.9624 21.4157 4.59242L25.2386 3.25259C26.2943 2.88261 27.4237 3.6281 27.7613 4.91769L33.024 25.0228C33.3616 26.3124 32.7794 27.6577 31.7238 28.0277L27.9008 29.3675C26.8452 29.7375 25.7157 28.992 25.3782 27.7024L20.1155 7.59734Z" fill="black"/>
</svg>
