<svg width="25" height="25" viewBox="0 0 36 30" fill="none" xmlns="http://www.w3.org/2000/svg">
<path fill-rule="evenodd" clip-rule="evenodd" d="M6.36315 0H2.15315C0.983152 0 0.0431519 1.12 0.0431519 2.5V27.5C0.0431519 28.88 0.983152 30 2.15315 30H6.36315C7.53315 30 8.47315 28.88 8.47315 27.5V2.5C8.47315 1.12 7.53315 0 6.36315 0ZM6.03315 27.07C6.03315 27.4 5.77315 27.67 5.44315 27.67H3.07315C2.74315 27.67 2.48315 27.4 2.48315 27.07V2.93C2.48315 2.61 2.74315 2.34 3.07315 2.34H5.44315C5.77315 2.34 6.03315 2.61 6.03315 2.93V27.07ZM25.3832 4.29L21.4332 5.75C20.3332 6.16 19.7832 7.38 20.1932 8.49L27.6132 28.53C28.0232 29.64 29.2332 30.21 30.3332 29.8L34.2832 28.34C35.3832 27.93 35.9332 26.71 35.5232 25.6L28.1032 5.56C27.6932 4.45 26.4832 3.88 25.3832 4.29ZM33.1032 26.1C33.2032 26.36 33.0332 26.67 32.7232 26.79L30.5032 27.61C30.1932 27.72 29.8732 27.6 29.7732 27.33L22.6032 7.98C22.5032 7.72 22.6732 7.42 22.9832 7.3L25.2032 6.48C25.5132 6.37 25.8332 6.49 25.9332 6.75L33.1032 26.1ZM17.6032 0H13.3932C12.2232 0 11.2832 1.12 11.2832 2.5V27.5C11.2832 28.88 12.2232 30 13.3932 30H17.6032C18.7632 30 19.7132 28.88 19.7132 27.5V2.5C19.7132 1.12 18.7632 0 17.6032 0ZM17.2732 27.07C17.2732 27.4 17.0032 27.67 16.6832 27.67H14.3132C13.9832 27.67 13.7132 27.4 13.7132 27.07V2.93C13.7132 2.61 13.9832 2.34 14.3132 2.34H16.6832C17.0032 2.34 17.2732 2.61 17.2732 2.93V27.07Z" fill="black"/>
</svg>
