<svg width="25" height="25" viewBox="0 0 42 39" fill="none" xmlns="http://www.w3.org/2000/svg">
<path d="M36.4998 4.11017L36.499 4.10941C31.9612 0.0995307 25.309 0.900606 21.29 5.20056C21.2899 5.20062 21.2898 5.20069 21.2898 5.20075L21.0005 5.50983L20.7123 5.20184C20.712 5.20153 20.7117 5.20122 20.7114 5.20091C16.6984 0.89962 10.0389 0.10028 5.50206 4.10941L5.5012 4.11017C0.440972 8.58866 0.187068 16.5739 4.70239 21.4144L4.70301 21.415L18.3082 35.9822L18.3085 35.9825C19.7803 37.5575 22.2137 37.5575 23.6855 35.9825L23.6858 35.9822L37.2907 21.4153C41.8142 16.5748 41.5602 8.58877 36.4998 4.11017Z" stroke="black" stroke-width="3"/>
</svg>
