<svg width="175" height="25" viewBox="0 0 175 25" fill="none" xmlns="http://www.w3.org/2000/svg">
<path d="M0.0668073 24.0655V6.72149H5.85881V11.7775L4.99481 10.3375C5.50681 9.03616 6.33881 8.06549 7.49081 7.42549C8.64281 6.76416 10.0401 6.43349 11.6828 6.43349V11.9055C11.4055 11.8628 11.1601 11.8415 10.9468 11.8415C10.7548 11.8202 10.5415 11.8095 10.3068 11.8095C9.06947 11.8095 8.06681 12.1508 7.29881 12.8335C6.53081 13.4948 6.14681 14.5828 6.14681 16.0975V24.0655H0.0668073ZM20.2436 24.3535C18.1956 24.3535 16.4036 23.9695 14.8676 23.2015C13.3529 22.4122 12.1689 21.3455 11.3156 20.0015C10.4836 18.6362 10.0676 17.0895 10.0676 15.3615C10.0676 13.6335 10.4729 12.0975 11.2836 10.7535C12.1156 9.38816 13.2569 8.33216 14.7076 7.58549C16.1582 6.81749 17.7902 6.43349 19.6036 6.43349C21.3102 6.43349 22.8676 6.78549 24.2756 7.48949C25.6836 8.17216 26.8036 9.18549 27.6356 10.5295C28.4676 11.8735 28.8836 13.5055 28.8836 15.4255C28.8836 15.6388 28.8729 15.8842 28.8516 16.1615C28.8302 16.4388 28.8089 16.6948 28.7876 16.9295H15.0596V13.7295H25.5556L23.2516 14.6255C23.2729 13.8362 23.1236 13.1535 22.8036 12.5775C22.5049 12.0015 22.0782 11.5535 21.5236 11.2335C20.9902 10.9135 20.3609 10.7535 19.6356 10.7535C18.9102 10.7535 18.2702 10.9135 17.7156 11.2335C17.1822 11.5535 16.7662 12.0122 16.4676 12.6095C16.1689 13.1855 16.0196 13.8682 16.0196 14.6575V15.5855C16.0196 16.4388 16.1902 17.1748 16.5316 17.7935C16.8942 18.4122 17.4062 18.8922 18.0676 19.2335C18.7289 19.5535 19.5182 19.7135 20.4356 19.7135C21.2889 19.7135 22.0142 19.5962 22.6116 19.3615C23.2302 19.1055 23.8382 18.7215 24.4356 18.2095L27.6356 21.5375C26.8036 22.4548 25.7796 23.1588 24.5636 23.6495C23.3476 24.1188 21.9076 24.3535 20.2436 24.3535ZM136.574 24.3535C135.016 24.3535 133.715 24.0335 132.67 23.3935C131.646 22.7535 130.878 21.7722 130.366 20.4495C129.854 19.1268 129.598 17.4308 129.598 15.3615C129.598 13.3348 129.864 11.6602 130.398 10.3375C130.952 9.01482 131.752 8.03349 132.798 7.39349C133.843 6.75349 135.102 6.43349 136.574 6.43349C138.152 6.43349 139.582 6.79616 140.862 7.52149C142.163 8.24682 143.187 9.28149 143.934 10.6255C144.702 11.9482 145.086 13.5268 145.086 15.3615C145.086 17.2175 144.702 18.8175 143.934 20.1615C143.187 21.4842 142.163 22.5188 140.862 23.2655C139.582 23.9908 138.152 24.3535 136.574 24.3535ZM125.662 24.0655V0.321489H131.742V9.63349L131.422 15.3615L131.454 21.0895V24.0655H125.662ZM135.294 19.5215C135.976 19.5215 136.584 19.3615 137.118 19.0415C137.672 18.7215 138.11 18.2522 138.43 17.6335C138.771 16.9935 138.942 16.2362 138.942 15.3615C138.942 14.4868 138.771 13.7508 138.43 13.1535C138.11 12.5348 137.672 12.0655 137.118 11.7455C136.584 11.4255 135.976 11.2655 135.294 11.2655C134.611 11.2655 133.992 11.4255 133.438 11.7455C132.904 12.0655 132.467 12.5348 132.126 13.1535C131.806 13.7508 131.646 14.4868 131.646 15.3615C131.646 16.2362 131.806 16.9935 132.126 17.6335C132.467 18.2522 132.904 18.7215 133.438 19.0415C133.992 19.3615 134.611 19.5215 135.294 19.5215ZM154.12 24.3535C152.072 24.3535 150.28 23.9695 148.744 23.2015C147.229 22.4122 146.045 21.3455 145.192 20.0015C144.36 18.6362 143.944 17.0895 143.944 15.3615C143.944 13.6335 144.349 12.0975 145.16 10.7535C145.992 9.38816 147.133 8.33216 148.584 7.58549C150.034 6.81749 151.666 6.43349 153.48 6.43349C155.186 6.43349 156.744 6.78549 158.152 7.48949C159.56 8.17216 160.68 9.18549 161.512 10.5295C162.344 11.8735 162.76 13.5055 162.76 15.4255C162.76 15.6388 162.749 15.8842 162.728 16.1615C162.706 16.4388 162.685 16.6948 162.664 16.9295H148.936V13.7295H159.432L157.128 14.6255C157.149 13.8362 157 13.1535 156.68 12.5775C156.381 12.0015 155.954 11.5535 155.4 11.2335C154.866 10.9135 154.237 10.7535 153.512 10.7535C152.786 10.7535 152.146 10.9135 151.592 11.2335C151.058 11.5535 150.642 12.0122 150.344 12.6095C150.045 13.1855 149.896 13.8682 149.896 14.6575V15.5855C149.896 16.4388 150.066 17.1748 150.408 17.7935C150.77 18.4122 151.282 18.8922 151.944 19.2335C152.605 19.5535 153.394 19.7135 154.312 19.7135C155.165 19.7135 155.89 19.5962 156.488 19.3615C157.106 19.1055 157.714 18.7215 158.312 18.2095L161.512 21.5375C160.68 22.4548 159.656 23.1588 158.44 23.6495C157.224 24.1188 155.784 24.3535 154.12 24.3535ZM162.683 24.0655V6.72149H168.475V11.7775L167.611 10.3375C168.123 9.03616 168.955 8.06549 170.107 7.42549C171.259 6.76416 172.656 6.43349 174.299 6.43349V11.9055C174.022 11.8628 173.776 11.8415 173.563 11.8415C173.371 11.8202 173.158 11.8095 172.923 11.8095C171.686 11.8095 170.683 12.1508 169.915 12.8335C169.147 13.4948 168.763 14.5828 168.763 16.0975V24.0655H162.683Z" fill="black"/>
<path d="M51.3988 6.43349C52.7428 6.43349 53.9375 6.71082 54.9828 7.26549C56.0495 7.79882 56.8815 8.63082 57.4788 9.76149C58.0975 10.8922 58.4068 12.3535 58.4068 14.1455V24.0655H52.3268V15.1375C52.3268 13.9002 52.0921 13.0042 51.6228 12.4495C51.1535 11.8735 50.5135 11.5855 49.7028 11.5855C49.1268 11.5855 48.6041 11.7242 48.1348 12.0015C47.6655 12.2788 47.3028 12.7055 47.0468 13.2815C46.7908 13.8362 46.6628 14.5615 46.6628 15.4575V24.0655H40.5828V15.1375C40.5828 13.9002 40.3481 13.0042 39.8788 12.4495C39.4308 11.8735 38.7908 11.5855 37.9588 11.5855C37.3615 11.5855 36.8281 11.7242 36.3588 12.0015C35.9108 12.2788 35.5481 12.7055 35.2708 13.2815C35.0148 13.8362 34.8868 14.5615 34.8868 15.4575V24.0655H28.8068V6.72149H34.5988V11.5535L33.4468 10.1775C34.0868 8.94016 34.9615 8.01216 36.0708 7.39349C37.1801 6.75349 38.4175 6.43349 39.7828 6.43349C41.3401 6.43349 42.7055 6.83882 43.8788 7.64949C45.0735 8.43882 45.8735 9.67616 46.2788 11.3615L44.2948 10.9455C44.9135 9.53749 45.8415 8.43882 47.0788 7.64949C48.3375 6.83882 49.7775 6.43349 51.3988 6.43349ZM68.6711 24.3535C66.6231 24.3535 64.8311 23.9695 63.2951 23.2015C61.7804 22.4122 60.5964 21.3455 59.7431 20.0015C58.9111 18.6362 58.4951 17.0895 58.4951 15.3615C58.4951 13.6335 58.9004 12.0975 59.7111 10.7535C60.5431 9.38816 61.6844 8.33216 63.1351 7.58549C64.5857 6.81749 66.2177 6.43349 68.0311 6.43349C69.7377 6.43349 71.2951 6.78549 72.7031 7.48949C74.1111 8.17216 75.2311 9.18549 76.0631 10.5295C76.8951 11.8735 77.3111 13.5055 77.3111 15.4255C77.3111 15.6388 77.3004 15.8842 77.2791 16.1615C77.2577 16.4388 77.2364 16.6948 77.2151 16.9295H63.4871V13.7295H73.9831L71.6791 14.6255C71.7004 13.8362 71.5511 13.1535 71.2311 12.5775C70.9324 12.0015 70.5057 11.5535 69.9511 11.2335C69.4177 10.9135 68.7884 10.7535 68.0631 10.7535C67.3377 10.7535 66.6977 10.9135 66.1431 11.2335C65.6097 11.5535 65.1937 12.0122 64.8951 12.6095C64.5964 13.1855 64.4471 13.8682 64.4471 14.6575V15.5855C64.4471 16.4388 64.6177 17.1748 64.9591 17.7935C65.3217 18.4122 65.8337 18.8922 66.4951 19.2335C67.1564 19.5535 67.9457 19.7135 68.8631 19.7135C69.7164 19.7135 70.4417 19.5962 71.0391 19.3615C71.6577 19.1055 72.2657 18.7215 72.8631 18.2095L76.0631 21.5375C75.2311 22.4548 74.2071 23.1588 72.9911 23.6495C71.7751 24.1188 70.3351 24.3535 68.6711 24.3535ZM99.8263 6.43349C101.17 6.43349 102.365 6.71082 103.41 7.26549C104.477 7.79882 105.309 8.63082 105.906 9.76149C106.525 10.8922 106.834 12.3535 106.834 14.1455V24.0655H100.754V15.1375C100.754 13.9002 100.52 13.0042 100.05 12.4495C99.581 11.8735 98.941 11.5855 98.1303 11.5855C97.5543 11.5855 97.0316 11.7242 96.5623 12.0015C96.093 12.2788 95.7303 12.7055 95.4743 13.2815C95.2183 13.8362 95.0903 14.5615 95.0903 15.4575V24.0655H89.0103V15.1375C89.0103 13.9002 88.7756 13.0042 88.3063 12.4495C87.8583 11.8735 87.2183 11.5855 86.3863 11.5855C85.789 11.5855 85.2556 11.7242 84.7863 12.0015C84.3383 12.2788 83.9756 12.7055 83.6983 13.2815C83.4423 13.8362 83.3143 14.5615 83.3143 15.4575V24.0655H77.2343V6.72149H83.0263V11.5535L81.8743 10.1775C82.5143 8.94016 83.389 8.01216 84.4983 7.39349C85.6076 6.75349 86.845 6.43349 88.2103 6.43349C89.7676 6.43349 91.133 6.83882 92.3063 7.64949C93.501 8.43882 94.301 9.67616 94.7063 11.3615L92.7223 10.9455C93.341 9.53749 94.269 8.43882 95.5063 7.64949C96.765 6.83882 98.205 6.43349 99.8263 6.43349ZM117.099 24.3535C115.051 24.3535 113.259 23.9695 111.723 23.2015C110.208 22.4122 109.024 21.3455 108.171 20.0015C107.339 18.6362 106.923 17.0895 106.923 15.3615C106.923 13.6335 107.328 12.0975 108.139 10.7535C108.971 9.38816 110.112 8.33216 111.563 7.58549C113.013 6.81749 114.645 6.43349 116.459 6.43349C118.165 6.43349 119.723 6.78549 121.131 7.48949C122.539 8.17216 123.659 9.18549 124.491 10.5295C125.323 11.8735 125.739 13.5055 125.739 15.4255C125.739 15.6388 125.728 15.8842 125.707 16.1615C125.685 16.4388 125.664 16.6948 125.643 16.9295H111.915V13.7295H122.411L120.107 14.6255C120.128 13.8362 119.979 13.1535 119.659 12.5775C119.36 12.0015 118.933 11.5535 118.379 11.2335C117.845 10.9135 117.216 10.7535 116.491 10.7535C115.765 10.7535 115.125 10.9135 114.571 11.2335C114.037 11.5535 113.621 12.0122 113.323 12.6095C113.024 13.1855 112.875 13.8682 112.875 14.6575V15.5855C112.875 16.4388 113.045 17.1748 113.387 17.7935C113.749 18.4122 114.261 18.8922 114.923 19.2335C115.584 19.5535 116.373 19.7135 117.291 19.7135C118.144 19.7135 118.869 19.5962 119.467 19.3615C120.085 19.1055 120.693 18.7215 121.291 18.2095L124.491 21.5375C123.659 22.4548 122.635 23.1588 121.419 23.6495C120.203 24.1188 118.763 24.3535 117.099 24.3535Z" fill="#D05BC5"/>
</svg>
