<svg width="25" height="25" viewBox="0 0 26 30" fill="none" xmlns="http://www.w3.org/2000/svg">
<g clip-path="url(#clip0_433_180)">
<path d="M8.35714 7.5C8.35714 6.2568 8.8463 5.06451 9.717 4.18544C10.5877 3.30636 11.7686 2.8125 13 2.8125C14.2314 2.8125 15.4123 3.30636 16.283 4.18544C17.1537 5.06451 17.6429 6.2568 17.6429 7.5C17.6429 8.7432 17.1537 9.93549 16.283 10.8146C15.4123 11.6936 14.2314 12.1875 13 12.1875C11.7686 12.1875 10.5877 11.6936 9.717 10.8146C8.8463 9.93549 8.35714 8.7432 8.35714 7.5ZM20.4286 7.5C20.4286 5.51088 19.6459 3.60322 18.2528 2.1967C16.8597 0.790176 14.9702 0 13 0C11.0298 0 9.14033 0.790176 7.74721 2.1967C6.35408 3.60322 5.57143 5.51088 5.57143 7.5C5.57143 9.48912 6.35408 11.3968 7.74721 12.8033C9.14033 14.2098 11.0298 15 13 15C14.9702 15 16.8597 14.2098 18.2528 12.8033C19.6459 11.3968 20.4286 9.48912 20.4286 7.5ZM23.1388 27.1875H2.86116C3.37768 23.4785 6.53482 20.625 10.3478 20.625H15.6522C19.4652 20.625 22.6223 23.4785 23.1388 27.1875ZM26 28.2598C26 22.4883 21.3687 17.8125 15.6522 17.8125H10.3478C4.63125 17.8125 7.15256e-07 22.4883 7.15256e-07 28.2598C7.15256e-07 29.2207 0.771876 30 1.72366 30H24.2763C25.2281 30 26 29.2207 26 28.2598Z" fill="black"/>
</g>
<defs>
<clipPath id="clip0_433_180">
<rect width="26" height="30" fill="white" transform="matrix(-1 0 0 1 26 0)"/>
</clipPath>
</defs>
</svg>
